# xmcd
#
# Track frame offsets:
#	150
#	90760
#	166885
#	223507
#
# Disc length: 4360 seconds
# Revision: 0
# Processed by: cddbd v1.5.2PL0 Copyright (c) Steve Scherf et al.
# Submitted via: dBpowerAMP V12.0
#
DISCID=24110604
DTITLE=Eugene Ormandy and TPO - Bruckner: Symphony No. 5
DYEAR=1992
DGENRE=Symphony
TTITLE0=Symphony No. 5 in B flat, WAB 105: 1. Introduction. Adagio - Allegro
TTITLE1=Symphony No. 5 in B flat, WAB 105: 2. Adagio. Sehr langsam
TTITLE2=Symphony No. 5 in B flat, WAB 105: 3. Scherzo. Molto vivace
TTITLE3=Symphony No. 5 in B flat, WAB 105: 4. Finale. Adagio - Allegro moderato
EXTD=
EXTT0=
EXTT1=
EXTT2=
EXTT3=
PLAYORDER=
